<?xml version="1.0" encoding="UTF-8"?><svg id="Layer_1" xmlns="http://www.w3.org/2000/svg" viewBox="0 0 48 48"><defs><style>.cls-1{fill:#ff7043;}.cls-1,.cls-2,.cls-3,.cls-4,.cls-5,.cls-6{stroke:#000;stroke-miterlimit:10;}.cls-2{fill:#fff;}.cls-2,.cls-3,.cls-6{stroke-width:.75px;}.cls-3{fill:#046699;}.cls-4{fill:#fdd8a8;}.cls-5{fill:#fdd844;}.cls-6{fill:#a2dff9;}</style></defs><circle class="cls-2" cx="24" cy="24" r="23.5"/><rect class="cls-6" x="8" y="13.5" width="9" height="22.5" rx="4.5" ry="4.5"/><path class="cls-3" d="M13,13.5h-1c-1.37,0-2.87-5-1.5-5h4c1.37,0-.13,5-1.5,5Z"/><rect class="cls-4" x="10.5" y="30.5" width="30" height="6" rx="3" ry="3"/><path class="cls-4" d="M37.5,24.5H13.5c-1.65,0-3-1.35-3-3h0c0-4,4.35-6,6-6h18c1.65,0,6,2,6,6h0c0,1.65-1.35,3-3,3Z"/><rect class="cls-1" x="10.5" y="27.5" width="30" height="3" rx="1.5" ry="1.5"/><rect class="cls-5" x="10.5" y="25.25" width="30" height="1.5" rx=".75" ry=".75"/></svg>